<?xml version="1.0" encoding="utf-8"?>
<!-- Generator: Adobe Illustrator 27.5.0, SVG Export Plug-In . SVG Version: 6.00 Build 0)  -->
<svg version="1.1" id="Layer_1" xmlns="http://www.w3.org/2000/svg" xmlns:xlink="http://www.w3.org/1999/xlink" x="0px" y="0px"
	 viewBox="0 0 2000 2000" style="enable-background:new 0 0 2000 2000;" xml:space="preserve">
<g>
	<rect x="0" y="0" style="fill:#FFFFFF;" width="2000" height="2000"/>
	<g>
		<polygon style="fill:#F7CC7F;" points="679.726,1198.75 661.055,1202.27 656.274,1221.047 635.065,1223.51 636.138,1245.08 
			612.277,1248.925 610.817,1268.909 588.463,1276.362 585.643,1267.902 602.356,1262.328 603.896,1241.242 626.834,1237.546 
			625.742,1215.615 649.146,1212.896 653.817,1194.559 671.122,1191.296 671.67,1178.614 680.581,1178.999 		"/>
		<g>
			<path style="fill:#96D9C9;" d="M1193.946,1076.662l21.481-20.788c-6.721-37.585-41.982-55.675-65.202-58.14
				c-62.528-6.637-94.401,36.353-107.815,105.303c-24.484,125.85,6.342,654.287,6.342,654.287
				c2.305-14.034,172.131-544.706,167.777-690.506L1193.946,1076.662z"/>
			<path style="fill:#3C8F7C;" d="M395.443,1534.531l-2.311,17.101l-5.535-19.78c-15.556-4.9-29.069-6.578-39.777-4.145
				c-95.699,21.75,69.672,153.361,69.672,153.361s-52.705-33.086-103.747-54.037l-0.648,17.336l-6.529-19.589
				c-39.661-15.526-76.457-22.701-83.81-0.285c-6.922,21.104,7.008,41.083,30.978,58.87l27.554,0.967l-16.242,6.811
				c55.357,35.458,146.933,60.821,178.542,66.59c-30.238-4.75-104.161-14.37-147.97-4.914l6.875,11.44l-17.299-8.65
				c-15.334,4.946-24.858,13.135-23.832,26.029c1.961,24.653,108.931,33.531,108.931,33.531l390.772-3.626l2.175,1.087
				C763.241,1812.629,521.419,1580.678,395.443,1534.531z"/>
			<path style="fill:#50BFA5;" d="M1752.449,1754.569c-8.691-40.347-96.916-52.207-209.377-30.09
				c40.044-13.684,95.059-44.829,123.549-59.063l-19.487-12.401l39.14,1.821c32.011-18.74,48.016-37.151,37.56-53.803
				c-7.81-12.438-24.945-17.611-48.169-17.55l-12.232,21.889l2.539-21.585c-58.583,3.383-71.872-6.18-150.899,25.764
				c49.383-25.636,56.52-33.589,59.762-43.881l-26.747-11.701h31.341c25.335-27.255,65.528-81.17,48.859-106.02
				c-13.757-20.506-74.154,7.957-112.703,22.746l-16.394,36.886l3.319-31.518c-122.565,53.391-81.021,10.555-81.021,10.555
				s127.944-264.673,52.571-258.723c-29.756,2.349-61.755,20.282-93.178,49.016l-0.796,26.309l-9.35-16.695
				c-22.89,22.435-45.555,49.612-67.191,78.781c29.337-61.614,51.586-122.135,53.797-167.194l-22.392-2.714l22.097-15.372
				c-2.08-22.766-11.097-39.984-29.366-49.085c-28.023-13.96-57.434,7.163-86.389,49.139l7.149,37.886l-17.962-21.227
				c-103.681,168.976-198.483,584.989-198.483,584.989l-7.521,22.563l304.6,15.041
				C1329.077,1819.33,1770.002,1836.063,1752.449,1754.569z"/>
			<g>
				<path style="fill:#184655;" d="M1790.189,1821.331H209.811c-2.627,0-4.756-2.259-4.756-5.047c0-2.787,2.129-5.047,4.756-5.047
					h1580.377c2.626,0,4.756,2.259,4.756,5.047C1794.945,1819.072,1792.815,1821.331,1790.189,1821.331z"/>
			</g>
			<path style="fill:#86B1F2;" d="M1304.504,1642.092H590.107c-27.286,0-49.407-20.069-49.407-44.825v-26.653
				c0-24.757,22.12-44.825,49.407-44.825h714.396l0,0c-32.679,32.406-33.245,81.932-1.313,114.947L1304.504,1642.092z"/>
			<path style="fill:#FAE0B2;" d="M1294.496,1539.115H934.999c-24.756,0-44.825,20.069-44.825,44.825l0,0
				c0,24.757,20.069,44.825,44.825,44.825h359.528C1277.728,1601.267,1277.761,1566.542,1294.496,1539.115z"/>
			<g>
				<path style="fill:#100062;" d="M1365.442,1398.647c1.565-2.691-0.812-5.8-4.429-5.8H698.967
					c-44.593,0-80.743,29.831-80.743,66.632l0,0c0,36.799,36.15,66.631,80.743,66.631h662.203c3.633,0,6.016-3.133,4.436-5.832l0,0
					C1343.076,1481.764,1343.134,1436.99,1365.442,1398.647z"/>
				<path style="fill:#FAE0B2;" d="M1360.907,1407.186H886.074c-28.197,0-51.056,22.859-51.056,51.056v3.83
					c0,28.198,22.858,51.056,51.056,51.056h475.647C1344.618,1479.176,1344.429,1441.124,1360.907,1407.186z"/>
			</g>
			<g>
				<path style="fill:#FF4C16;" d="M1027.239,1460.575h-39.292c-8.45,0-15.3,2.621-15.3,5.854v0.525h54.592V1460.575z"/>
				<path style="fill:#F47458;" d="M1060.756,1475.254c0-8.107-10.262-14.679-22.921-14.679h-50.424
					c9.601,0,17.383,4.984,17.383,11.134l-0.237,157.342l27.861-20.234l28.397,20.234L1060.756,1475.254z"/>
			</g>
			<g>
				<path style="fill:#FF3B3B;" d="M1598.238,1641.855H536.719c-32.964,0-59.686,26.723-59.686,59.685v50.204
					c0,32.963,26.723,59.686,59.686,59.686h1061.519l-0.556-0.578C1552.27,1763.585,1552.516,1688.822,1598.238,1641.855z"/>
				<path style="fill:#FAE0B2;" d="M1579.446,1666.957h-567.469c-32.964,0-59.686,26.722-59.686,59.685v0.001
					c0,32.963,26.722,59.685,59.686,59.685h567.458C1558.575,1749.37,1558.605,1703.885,1579.446,1666.957z"/>
			</g>
			<g>
				<path style="fill:#13375B;" d="M1300.818,1726.952h-46.019c-9.897,0-17.92,8.023-17.92,17.919v1.604h63.94V1726.952z"/>
				<path style="fill:#355389;" d="M1256.681,1727.018c10.999-0.005,27.427,9.303,36.691,20.793l109.152,135.372l64.114-0.038
					L1362.827,1754.4c-12.215-15.149-33.873-27.423-48.377-27.414L1256.681,1727.018z"/>
			</g>
			<g>
				<path style="fill:#F7CC7F;" d="M652.053,275.997c-22.633,15.639-14.696,51.295,12.517,56.059
					c4.887,0.856,9.264,3.548,12.402,7.392l10.796,13.227c2.976,3.645,8.253,4.393,12.124,1.719l8.574-5.925
					c3.871-2.674,5.038-7.875,2.68-11.947c-8.602-14.859-12.85-19.715-11.083-28.991
					C705.23,280.395,674.691,260.354,652.053,275.997z"/>
				<g>
					<path style="fill:#FAE0B2;" d="M691.84,343.873c-0.008,0.005-0.016,0.01-0.016,0.01c-1.154,0.779-2.71,0.476-3.483-0.67
						l-20.473-30.343l-10.822-2.807c-1.339-0.348-2.142-1.713-1.795-3.052c0.347-1.338,1.714-2.141,3.052-1.795l12.656,3.283
						l21.533,31.914C693.259,341.551,692.966,343.094,691.84,343.873z"/>
				</g>
				<g>
					<path style="fill:#FAE0B2;" d="M703.014,338.011c0.008-0.006,0.016-0.011,0.023-0.016c1.128-0.799,1.396-2.361,0.598-3.49
						l-21.143-29.881l1.202-11.115c0.148-1.375-0.846-2.609-2.22-2.758c-1.374-0.15-2.61,0.845-2.758,2.219l-1.405,12.999
						l22.236,31.427C700.341,338.518,701.887,338.789,703.014,338.011z"/>
				</g>
				<path style="fill:#96D9C9;" d="M676.688,339.129c0.092,0.108,0.193,0.208,0.283,0.319l10.796,13.227
					c2.975,3.645,8.252,4.393,12.123,1.719l8.574-5.925c3.871-2.674,5.038-7.875,2.68-11.947c-3.827-6.61-6.789-11.239-8.746-15.159
					L676.688,339.129z"/>
			</g>
			<path style="fill:#F47458;" d="M1559.743,952.405l-10.778-15.586l-18.949,0.042c-2.158,0.005-3.385-2.467-2.077-4.183
				l11.493-15.067l-5.896-18.009c-0.672-2.051,1.3-3.983,3.337-3.268l17.881,6.275l15.306-11.172
				c1.743-1.273,4.189,0.006,4.139,2.164l-0.442,18.945l15.355,11.104c1.749,1.264,1.288,3.986-0.78,4.605l-18.154,5.434
				l-5.816,18.035C1563.701,953.778,1560.97,954.18,1559.743,952.405z"/>
			<path style="fill:#F47458;" d="M402.626,1009.467l-18.374,4.637l-6.597,17.764c-0.751,2.023-3.497,2.307-4.645,0.48
				l-10.087-16.042l-18.933-0.784c-2.157-0.089-3.275-2.613-1.892-4.27l12.139-14.551l-5.105-18.249
				c-0.582-2.079,1.473-3.921,3.476-3.119l17.59,7.049l15.779-10.494c1.797-1.195,4.185,0.189,4.04,2.343l-1.268,18.907
				l14.856,11.763C405.297,1006.24,404.718,1008.939,402.626,1009.467z"/>
			<path style="fill:#9BC1F9;" d="M1505.035,1082.905l-7.918-11.45l-13.92,0.031c-1.586,0.004-2.486-1.813-1.525-3.073l8.442-11.068
				l-4.331-13.229c-0.493-1.507,0.956-2.925,2.451-2.4l13.135,4.609l11.243-8.207c1.28-0.935,3.077,0.005,3.041,1.59l-0.326,13.916
				l11.281,8.157c1.284,0.929,0.946,2.928-0.573,3.383l-13.335,3.991l-4.272,13.249
				C1507.942,1083.912,1505.935,1084.208,1505.035,1082.905z"/>
			<path style="fill:#F7CC7F;" d="M1568.562,711.415l-12.104-6.875l-12.526,6.073c-1.427,0.693-3.027-0.553-2.708-2.105
				l2.798-13.636l-9.646-10.036c-1.099-1.143-0.41-3.05,1.166-3.226l13.833-1.553l6.563-12.276c0.747-1.398,2.774-1.332,3.429,0.112
				l5.75,12.677l13.704,2.449c1.56,0.279,2.124,2.226,0.953,3.296l-10.279,9.386l1.905,13.789
				C1571.618,711.06,1569.939,712.198,1568.562,711.415z"/>
			<path style="fill:#9BC1F9;" d="M664.736,526.989l-12.347-6.43l-12.297,6.524c-1.401,0.744-3.045-0.443-2.783-2.006l2.3-13.729
				l-10.005-9.678c-1.14-1.102-0.52-3.033,1.048-3.266l13.768-2.055l6.113-12.506c0.696-1.424,2.724-1.432,3.431-0.013l6.208,12.459
				l13.784,1.949c1.569,0.222,2.203,2.148,1.072,3.259l-9.931,9.754l2.406,13.711C667.777,526.524,666.141,527.722,664.736,526.989z
				"/>
			<path style="fill:#9BC1F9;" d="M863.232,297.683l-12.346-6.43l-12.297,6.525c-1.401,0.744-3.045-0.442-2.783-2.006l2.3-13.729
				l-10.005-9.678c-1.139-1.102-0.52-3.033,1.048-3.266l13.768-2.055l6.112-12.506c0.696-1.424,2.724-1.432,3.431-0.013
				l6.208,12.459l13.784,1.949c1.569,0.222,2.203,2.148,1.072,3.259l-9.93,9.754l2.406,13.711
				C866.273,297.218,864.636,298.416,863.232,297.683z"/>
			<path style="fill:#9BC1F9;" d="M349.046,791.553l-12.346-6.43l-12.297,6.524c-1.401,0.744-3.045-0.442-2.783-2.005l2.3-13.729
				l-10.005-9.678c-1.139-1.102-0.52-3.033,1.048-3.267l13.768-2.055l6.112-12.506c0.696-1.424,2.724-1.432,3.431-0.013
				l6.208,12.459l13.784,1.949c1.569,0.222,2.203,2.148,1.072,3.259l-9.931,9.754l2.405,13.711
				C352.087,791.088,350.45,792.286,349.046,791.553z"/>
			<path style="fill:#9BC1F9;" d="M1213.17,594.493l-7.918-11.45l-13.921,0.03c-1.586,0.004-2.486-1.812-1.525-3.073l8.442-11.068
				l-4.331-13.229c-0.493-1.507,0.956-2.925,2.451-2.4l13.135,4.609l11.243-8.207c1.28-0.935,3.077,0.005,3.04,1.59l-0.325,13.916
				l11.281,8.157c1.284,0.929,0.946,2.928-0.573,3.383l-13.335,3.991l-4.272,13.249
				C1216.077,595.501,1214.07,595.797,1213.17,594.493z"/>
			<path style="fill:#9BC1F9;" d="M1479.78,599.494l-7.918-11.449l-13.921,0.03c-1.586,0.004-2.486-1.812-1.525-3.073l8.442-11.068
				l-4.331-13.229c-0.493-1.507,0.956-2.925,2.451-2.4l13.135,4.609l11.243-8.207c1.28-0.935,3.077,0.005,3.04,1.59l-0.325,13.916
				l11.281,8.157c1.284,0.929,0.946,2.928-0.573,3.383l-13.335,3.991l-4.272,13.249
				C1482.687,600.502,1480.68,600.798,1479.78,599.494z"/>
			<polygon style="fill:#F48C7F;" points="1305.646,838.418 1288.144,835.475 1277.889,850.39 1258.503,845.701 1252.48,864.955 
				1230.322,860.621 1222.59,877.666 1200.59,876.982 1200.85,868.655 1217.299,869.166 1225.458,851.18 1246.757,855.346 
				1252.881,835.77 1274.274,840.943 1284.288,826.379 1300.51,829.106 1305.086,818.166 1312.772,821.381 			"/>
			<polygon style="fill:#466EB6;" points="1207.489,273.28 1202.136,290.202 1215.478,302.434 1208.134,320.978 1226.361,329.625 
				1218.983,350.963 1234.785,360.994 1231.042,382.685 1222.833,381.267 1225.631,365.05 1208.957,354.465 1216.049,333.954 
				1197.517,325.163 1205.62,304.699 1192.592,292.753 1197.552,277.069 1187.357,271.014 1191.61,263.851 			"/>
			<polygon style="fill:#50BFA5;" points="758.494,957.359 745.677,961.292 737.07,941.369 717.622,944.809 708.743,930.953 
				701.728,935.447 713.603,953.98 732.034,950.72 740.989,971.446 760.275,965.526 			"/>
			<path style="fill:#F48C7F;" d="M465.574,1124.072l-19.183,11.671l19.898,89.387c1.719,7.724,10.519,11.471,17.279,7.359l0,0
				c4.258-2.591,6.374-7.62,5.249-12.476l-4.862-20.987l20.129-12.246l16.643,13.928c3.794,3.175,9.19,3.582,13.417,1.01
				l0.364-0.222c6.766-4.115,7.479-13.665,1.398-18.738L465.574,1124.072z M478.55,1177.93l-3.676-16.421l12.917,10.799
				L478.55,1177.93z"/>
			<path style="fill:#F48C7F;" d="M1410.604,330.406l-22.294-2.682l-39.605,82.567c-3.422,7.134,1.179,15.52,9.035,16.465l0,0
				c4.948,0.595,9.721-2.051,11.838-6.563l9.149-19.504l23.392,2.814l4.475,21.236c1.02,4.841,5.01,8.496,9.923,9.087l0.424,0.051
				c7.863,0.947,14.325-6.12,12.681-13.867L1410.604,330.406z M1387.516,380.765l7.26-15.181l3.48,16.473L1387.516,380.765z"/>
			<path style="fill:#466EB6;" d="M535.935,840.862c0.928-2.552,0.383-11.61,12.783-20.608c5.098-3.66,9.276-6.772,10.331-10.935
				c1.821-7.182-5.768-10.44-13.25-10.237c-3.87,0.105-7.104-2.926-7.314-6.793l0,0c-0.213-3.929,2.764-7.29,6.688-7.57
				c4.285-0.306,9.35-0.004,14.688,1.349c16.164,4.097,21.245,14.899,18.669,25.062c-2.359,9.306-9.667,13.969-15.625,17.933
				c-10.027,6.69-9.859,13.891-10.683,15.928L535.935,840.862z M528.467,856.952c1.646-6.489,7.356-9.994,13.723-8.38
				c6.612,1.676,9.718,7.417,8.196,13.937c-1.614,6.368-7.233,10.027-13.846,8.35C530.051,869.214,526.853,863.319,528.467,856.952z
				"/>
			<path style="fill:#96D9C9;" d="M607.954,1015.051c4.918,0.399,14.538,2.394,23.377,4.92c10.816,3.091,17.146,6.033,21.88,11.034
				c4.635,4.469,7.06,10.95,5.033,18.043c-1.995,6.978-7.926,12.328-17.696,13.057l-0.066,0.233
				c8.258,5.002,12.958,13.642,10.067,23.76c-2.028,7.094-6.88,11.746-12.894,14.304c-6.994,2.907-17.263,2.74-32.847-1.714
				c-8.722-2.493-15.069-4.936-18.857-6.647L607.954,1015.051z M616.939,1050.076l5.815,1.662
				c9.304,2.659,15.402,0.251,17.064-5.565c1.695-5.931-1.943-10.367-9.968-12.661c-3.837-1.097-6.114-1.496-7.692-1.695
				L616.939,1050.076z M607.001,1084.85c1.678,0.731,3.772,1.329,6.795,2.194c8.025,2.293,15.983,1.297,18.343-6.96
				c2.26-7.908-3.937-13.076-12.775-15.602l-6.047-1.728L607.001,1084.85z"/>
			<path style="fill:#F47458;" d="M455.841,440.54c4.143-2.679,12.988-6.957,21.536-10.338c10.461-4.137,17.272-5.66,24.074-4.578
				c6.398,0.721,12.269,4.383,14.982,11.244c2.669,6.749,1.224,14.605-6.08,21.135l0.089,0.225
				c9.596-1.063,18.587,2.925,22.457,12.711c2.713,6.861,1.699,13.506-1.513,19.198c-3.776,6.566-12.021,12.689-27.093,18.649
				c-8.436,3.336-14.957,5.265-19.004,6.215L455.841,440.54z M484.302,462.844l5.624-2.224c8.998-3.559,12.367-9.183,10.143-14.807
				c-2.269-5.736-7.856-7.038-15.617-3.969c-3.712,1.467-5.76,2.538-7.133,3.341L484.302,462.844z M497.603,496.475
				c1.776-0.443,3.801-1.243,6.725-2.4c7.761-3.07,13.466-8.707,10.307-16.693c-3.025-7.649-11.087-7.972-19.636-4.592l-5.849,2.313
				L497.603,496.475z"/>
			<path style="fill:#F7CC7F;" d="M1366.991,1048.956c0.996,4.361-1.675,8.748-6.025,9.795c-4.06,0.977-9.222,1.745-15.156,1.945
				c-30.893,1.042-47.453-17.647-48.311-43.104c-1.028-30.495,20.144-48.2,47.192-49.113c5.367-0.181,10.092,0.218,13.913,0.883
				c4.598,0.8,7.582,5.294,6.576,9.85l-0.064,0.285c-0.942,4.274-5.077,7.093-9.386,6.323c-2.827-0.505-6.017-0.785-9.55-0.666
				c-16.043,0.541-28.18,10.64-27.509,30.529c0.604,17.9,11.592,28.812,29.623,28.204c3-0.101,6.15-0.529,9.043-1.142
				C1361.703,1041.819,1365.995,1044.606,1366.991,1048.956L1366.991,1048.956z"/>
			<path style="fill:#F7CC7F;" d="M416.359,686.366c-0.672,4.423-4.765,7.525-9.197,6.904c-4.135-0.579-9.22-1.758-14.814-3.747
				c-29.124-10.357-37.68-33.815-29.145-57.814c10.223-28.749,36.412-37.459,61.912-28.392c5.06,1.799,9.309,3.903,12.621,5.922
				c3.984,2.43,5.113,7.705,2.507,11.576l-0.164,0.242c-2.444,3.631-7.324,4.737-11.051,2.442c-2.445-1.506-5.31-2.936-8.641-4.12
				c-15.124-5.378-30.119-0.432-36.786,18.318c-6,16.875,0.222,31.056,17.221,37.1c2.828,1.006,5.915,1.763,8.832,2.253
				C414.056,677.788,417.028,681.954,416.359,686.366L416.359,686.366z"/>
			<path style="fill:#466EB6;" d="M1366.106,751.819c-1.934-6.472,1.906-13.535,8.39-15.432c6.746-1.973,12.715,1.507,15.023,8.241
				c2.18,6.773-0.743,13.322-7.777,15.586C1374.601,762.512,1368.19,758.795,1366.106,751.819z M1364.59,732.382l-19.086-50.378
				c-1.579-4.168,0.655-8.81,4.898-10.175l5.125-1.65c4.236-1.363,8.753,1.093,9.91,5.391l14.002,52.033L1364.59,732.382z"/>
			<g>
				<g>
					<g>
						<path style="fill:#F7A491;" d="M929.495,813.343c1.151,0.481-15.191,21.541-31.107,36.429
							c-12.833,16.105-24.87,35.171-29.016,55.959c-6.299,31.606-1.058,187.76-6.541,198.874
							c-47.099,46.043-81.202,161.601-90.777,196.857c-1.864,6.87-5.647,13.062-10.886,17.883l0,0l2.094,39.84l23.402,21.556
							c0,0-5.206-32.464,5.197-56.545c0,0,118.579-179.581,125.622-193.31c13.45-39.089,62.421-239.376,62.421-239.376l11.37-46.037
							C991.273,845.471,929.593,813.385,929.495,813.343z"/>
						<path style="fill:#FF3B3B;" d="M735.533,1332.163c0,0,14.811,22.824,16.074,31.719c1.267,8.892,9.158,29.07,17.882,30.346
							c1.982,0.287,35.916,2.78,35.668-1.462c-0.189-3.239-12.472-7.868-18.177-11.808c-9.856-6.805-25.16-62.265-25.16-62.265
							S736.172,1325.053,735.533,1332.163z"/>
					</g>
					<path style="fill:#F7A491;" d="M1030.848,882.549c0,0,76.377,163.307,76.863,192.02c0.419,24.613-13.346,162.698-9.505,277.69
						c0.139,4.152,5.398,9.67,13.05,13.177c4.307,1.973,25.107,11.264,25.107,11.264l2.858,7.442l-71.63-5.101l-1.022-19.557
						c0,0-28.509-172.022-25.603-220.67c0.459-7.642,4.173-53.401,4.173-53.401l-86.139-166.307l54.176-71.19L1030.848,882.549z"/>
					<g>
						<g>
							<path style="fill:#F7CC7F;" d="M783.398,521.728c-0.569-18.308,6.761-47.482,29.044-74.456l2.544,2.102
								c-21.698,26.266-28.84,54.545-28.29,72.251L783.398,521.728z"/>
						</g>
						<path style="fill:#F7CC7F;" d="M784.277,517.42c6.404,0.525,3.174,7.523,2.45,9.153c3.668,4.951,1.467,28.057,0.367,29.708
							c-3.117,1.65-3.059-3.301-3.059-3.301c-1.525,5.685-3.726,0-4.276,0.734c-2.017,4.034-3.668-1.765-3.668-1.765
							c-3.668,5.983-3.118-0.985-3.118-0.985c1.834-20.722,7.878-26.04,7.878-26.04c-1.067-4.833-0.282-7.046,2.942-7.49
							C783.949,517.412,784.121,517.408,784.277,517.42z"/>
					</g>
					<path style="fill:#100062;" d="M891.941,545.201c-19.072,12.228-80.825,21.897-80.825,21.897
						c24.206-77.753-6.031-120.297-6.031-120.297c54.883-1.406,110.854-19.805,145.399-38.143
						c-15.404,82.66,3.622,95.357,3.622,95.357C921.144,526.024,891.941,545.201,891.941,545.201z"/>
					<path style="fill:#FF3B3B;" d="M1038.015,516.005c-11.574-30.835-41.807-49.501-73.292-43.73
						c-9.661-15.599-25.768-27.173-43.292-30.925c-34.569-7.409-81.318,6.249-80.058,42.853
						c-13.411,24.59-13.925,59.744,6.592,78.45c-7.136,33.06,23.834,65.035,64.087,63.871
						c14.022,23.116,40.732,37.986,67.289,34.813c6.374-0.76,16.096-2.35,17.706-1.95c-2.024-0.377,42.666,33.886,80.534-18.801
						C1116.222,586.821,1089.072,521.739,1038.015,516.005z"/>
					<path style="fill:#F7A491;" d="M1033.441,331.066c1.864-4.421,4.168-8.642,6.876-12.601l2.984-4.351
						c0.365-0.773,0.655-1.421,0.801-1.86c1.303-3.854-5.224-28.288-5.224-28.288l-20.596,18.353l1.098,9.549
						c-5.816-2.687-10.826-24.457-13.091-18.834c-7.025,17.443-2.584,23.701,0.019,43.633
						c0.887,6.789-13.881,111.216-18.257,131.967c-4.377,20.747-33.945,78.682-33.945,78.682l23.654,30.011
						c0,0,46.741-84.017,49.592-110.977c0.299-2.836,0.636-7.082,0.999-12.339L1033.441,331.066z"/>
					<path style="fill:#100062;" d="M996.33,491.18c-11.942-3.843-10.269-24.206-10.269-24.206
						c8.619-62.716,16.871-119.38,16.871-119.38c7.702-4.401,34.384,3.851,34.384,3.851c-4.676,76.469-6.51,118.897-8.344,123.965
						C1027.138,480.477,1016.477,497.664,996.33,491.18z"/>
					<path style="fill:#F7A491;" d="M853.333,658.261l-32.111-27.221c0,0-26,43.347-46.825,78.697
						c-20.658-7.466-74.043-42.271-76.677-43.871c-2.643-1.603-8.49-40.938-13.013-38.846c-4.524,2.09,3.474,20.758-2.012,22.153
						c-5.49,1.397-46.589-26.069-47.434-22.399c-1.58,6.861,24.539,17.802,23.22,20.862c-1.318,3.06-26.255-14.019-30.23-9.752
						c-3.972,4.265,25.055,13.898,25.207,16.677c0.147,2.785-28.45-5.29-27.699,0.706c0.41,3.255,25.597,6.544,24.014,10.006
						c-1.588,3.462-21.213,4.036-20.395,7.741c0.82,3.706,16.377-2.765,25.877,1.397c9.498,4.164,18.411,2.112,31.668,13.287
						c13.248,11.161,78.375,74.92,98.664,69.453C803.311,752.372,853.333,658.261,853.333,658.261z"/>
					<g>
						<path style="fill:#F47458;" d="M855.777,1078.723c0.01,0.029,0.021,0.026,0.029-0.009
							C855.802,1078.717,855.777,1078.723,855.777,1078.723z"/>
						<path style="fill:#100062;" d="M966.779,611.609c2.052-12.56,24.494-31.307,62.193-136.2c0,0-24.624-10.604-42.911-8.435
							c0,0-61.872,113.384-75.842,114.755c-13.969,1.365-63.116,3.499-71.73,8.725c-8.617,5.227-67.381,117.982-67.381,117.982
							s2.081,59.522,12.135,54.918c20.905-9.575,63.163-91.902,65.963-94.93c1.991,6.427,32.598,105.582,32.552,128.044l0.236,0.189
							c28.609,23.205,70.352,17.843,92.418-11.875l0,0c0,0-5.019-30.642,1.137-58.515
							C985.92,679.305,999.191,665.551,966.779,611.609z"/>
						<path style="fill:#100062;" d="M1131.88,1097.041c0,0-30.633-139.543-48.099-200.022
							c-17.466-60.479-99.258-247.23-99.258-247.23c-20.677-32.077-135.357,18.027-135.317,18.635
							c7.236,109.215-0.2,181.178-5.081,235.36c-5.54,61.503-40.842,196.628-38.967,203.642
							C904.823,1095.311,1103.599,1126.719,1131.88,1097.041z"/>
					</g>
					<g>
						<path style="fill:#F47458;" d="M1033.059,314.84c0,0-2.657,7.422-9.862,4.879c-7.786-2.748-12.439-6.47-12.439-6.47
							s3.971,9.08,10.949,11.58C1035.373,329.725,1033.059,314.84,1033.059,314.84z"/>
						<g>
							<g>
								<path style="fill:#C98C53;" d="M1018.423,215.069c3.107,44.673,17.473,107.093,41.793,163.574
									c3.299,11.162-27.249,20.19-30.548,9.028c-3.928-41.669-20.692-113.471-45.886-163.542
									C980.044,209.836,1014.684,200.775,1018.423,215.069z"/>
								<path style="fill:#E8B16B;" d="M1046.187,369.291c-4.415-28.514-26.379-124.281-34.814-160.706
									c-11.076-3.162-30.435,4.67-27.591,15.544c25.194,50.071,41.958,121.873,45.886,163.542
									C1031.058,375.893,1038.485,370.666,1046.187,369.291z"/>
								<path style="fill:#F7CC7F;" d="M1041.241,380.844c0.568-9.169,15.862-10.636,18.705-2.201
									c-2.201-10.269-15.678-48.188-25.955-84.367c-10.277-36.179-14.389-72.79-15.489-80.675
									c-2.297-5.725-10.049-7.388-19.718-6.602C999.681,209.365,1041.241,380.844,1041.241,380.844z"/>
								<path style="fill:#FF3B3B;" d="M1006.078,284.511c5.744,11.003,13.611,46.206,13.611,46.206
									c15.151,0,23.984-7.449,23.984-7.449c-7.647-20.493-12.684-41.966-13.371-46.505
									C1021.636,274.15,1011.184,276.442,1006.078,284.511z"/>
							</g>
						</g>
					</g>
					<path style="fill:#F7A491;" d="M884.939,545.622c0,0,5.269,28.394,4.214,39.595c-1.051,11.201,35.109,74.855,38.365,73.572
						c3.112-1.227-4.123-67.484-9.398-83.026c-3.594-10.589-2.652-44.95-2.652-44.95L884.939,545.622z"/>
					<path style="fill:#F47458;" d="M915.94,547.861c-0.354-9.297-0.472-17.049-0.472-17.049l-30.529,14.81
						c0,0,1.076,5.803,2.159,13.204C900.464,561.623,910.146,556.469,915.94,547.861z"/>
					<path style="fill:#F7A491;" d="M873.778,467.255c0,0-11.763,6.798-16.066,21.529c-4.303,14.729,0.594,52.738,30.986,61.908
						c30.39,9.174,43.558-20.922,37.298-44.456C919.733,482.706,906.118,452.906,873.778,467.255z"/>
					<path style="fill:#F7A491;" d="M929.797,497.119c-0.596,6.317-3.948,11.147-7.481,10.788c-3.535-0.36-5.918-5.779-5.322-12.095
						c0.591-6.323,3.943-11.152,7.477-10.792C928.005,485.382,930.393,490.796,929.797,497.119z"/>
					<path style="fill:#F7A491;" d="M866.461,521.475c3.57,5.525,3.558,12.038-0.026,14.552c-3.588,2.511-9.391,0.071-12.96-5.454
						c-3.568-5.525-3.558-12.038,0.032-14.552C857.092,513.507,862.895,515.95,866.461,521.475z"/>
					<path style="fill:#F7A491;" d="M1036.391,281.057c-5.892-1.142-26.462,17.837-26.238,20.764
						c0.231,3.025,20.192-8.89,20.882-6.896c0.541,1.566-22.873,8.248-21.418,11.037c0.993,1.908,21.545-2.751,22.209-1.529
						c1.039,1.913-16.424,2.129-15.014,4.24c1.631,2.443,25.364,4.575,25.364,4.575s-3.129-9.272-2.698-11.789
						c0.188-1.074,0.198-2.58,0.098-4.306c-0.082-1.386,0.531-2.583,0.339-4.143
						C1039.134,286.708,1039.651,281.688,1036.391,281.057z"/>
					<path style="fill:#F7A491;" d="M1017.565,289.43l-8.308,10.366l-3.17-4.211c0,0-0.111-1.316,0.412-2.981
						C1006.835,291.54,1016.537,286.017,1017.565,289.43z"/>
					<path style="fill:#FF3B3B;" d="M1067.348,1392.674h90.491c3.346-0.299,4.161-3,3-4.666
						c-2.389-3.431-12.945-5.943-24.813-11.405c-20.81,2.164-66.134-12.058-69.417-16.828
						C1064.713,1369.326,1065.485,1392.264,1067.348,1392.674z"/>
					<path style="fill:#F7A491;" d="M1006.381,304.347c-0.303-2.402,4.251,0.131,11.185,12.072c5.088,8.762,0,26.59,0,26.59
						l-12.124-32.25L1006.381,304.347z"/>
				</g>
				<path style="fill:#100062;" d="M771.108,708.437c-27.842-17.006-67.519-40.37-70.453-41.471
					c-2.934-1.1-17.17,22.997-15.337,25.198c1.834,2.201,90.23,77.726,97.925,71.19
					C790.937,756.818,771.108,708.437,771.108,708.437z"/>
				<path style="fill:#FFFFFF;" d="M889.795,589.705c4.854,18.175,34.775,70.246,37.723,69.084c2.791-1.1-2.737-54.473-7.712-76.701
					C915.722,587.96,903.567,593.362,889.795,589.705z"/>
				<path style="fill:#F7CC7F;" d="M888.765,572.326c-11.128,9.761-14.566,22.484-21.901,64.09
					c-5.42,30.745-12.47,223.357-39.977,267.368c44.011,28.607,89.053,15.404,89.053,15.404
					C900.606,761.848,891.941,587.041,888.765,572.326z"/>
				<path style="fill:#F7CC7F;" d="M916.689,568.854c32.089,20.074,93.945,178.691,164.363,163.287
					c3.301,27.507-36.776,81.202-36.776,81.202c-85.355-69.099-124.47-231.255-124.47-231.255
					C917.557,577.036,916.689,568.854,916.689,568.854z"/>
			</g>
		</g>
	</g>
</g>
</svg>
