<?xml version="1.0" encoding="utf-8"?>
<!-- Generator: Adobe Illustrator 27.5.0, SVG Export Plug-In . SVG Version: 6.00 Build 0)  -->
<svg version="1.1" xmlns="http://www.w3.org/2000/svg" xmlns:xlink="http://www.w3.org/1999/xlink" x="0px" y="0px"
	 viewBox="0 0 750 500" style="enable-background:new 0 0 750 500;" xml:space="preserve">
<!-- <g id="BACKGROUND">
	<g>
		<defs>
			<rect id="SVGID_1_" width="750" height="500"/>
		</defs>
		<use xlink:href="#SVGID_1_"  style="overflow:visible;fill:#FFFFFF;"/>
		<clipPath id="SVGID_00000041999862028716944040000003479994723494974868_">
			<use xlink:href="#SVGID_1_"  style="overflow:visible;"/>
		</clipPath>
		
			<rect x="-63" y="-40" style="clip-path:url(#SVGID_00000041999862028716944040000003479994723494974868_);fill:#FFFFFF;" width="879" height="585"/>
	</g>
</g> -->
<g id="OBJECTS">
	<g>
		<!-- <g>
			<path style="fill:#F8E5C4;" d="M60.125,410.782h611.257c0,0,14.857-42.545-27.591-87.219
				c-42.448-44.674-47.599-151.335-182.451-190.86c-134.851-39.526-248.05,0.57-281.233,66.511
				C146.924,265.155,22.983,275.251,60.125,410.782z"/>
			<path style="fill:#EDD2A4;" d="M671.382,410.782c0,0,9.548-27.363-8.56-61.241c-21.342,12.078-44.67,35.618-83.252,41.944
				c-58.914,9.659-90.122-14.133-146.43-62.328s-172.447,20.302-199.109-34.268c-15.93-32.603-54.676-51.186-83.292-60.865
				c-47.544,40.417-120.207,68.775-90.614,176.758H671.382z"/>
			
				<line style="fill:none;stroke:#EDD2A4;stroke-width:1.0612;stroke-miterlimit:10;" x1="28.288" y1="410.782" x2="701.095" y2="410.782"/>
		</g> -->
		<g>
			<rect x="201.924" y="277.827" style="fill:#874F2E;" width="122.895" height="143.263"/>
			<rect x="282.117" y="277.827" style="fill:#AD6E47;" width="42.702" height="143.263"/>
			<g>
				<path style="fill:none;stroke:#704226;stroke-width:0.7889;stroke-miterlimit:10;" d="M308.108,291.692h-9.281
					c-1.529,0-2.768-1.239-2.768-2.768v-0.12h14.817v0.12C310.876,290.452,309.637,291.692,308.108,291.692z"/>
				
					<line style="fill:none;stroke:#704226;stroke-width:0.7889;stroke-miterlimit:10;" x1="324.819" y1="313.643" x2="201.924" y2="313.643"/>
			</g>
			<g>
				<path style="fill:none;stroke:#704226;stroke-width:0.7889;stroke-miterlimit:10;" d="M308.108,327.507h-9.281
					c-1.529,0-2.768-1.239-2.768-2.768v-0.12h14.817v0.12C310.876,326.268,309.637,327.507,308.108,327.507z"/>
				
					<line style="fill:none;stroke:#704226;stroke-width:0.7889;stroke-miterlimit:10;" x1="324.819" y1="349.459" x2="201.924" y2="349.459"/>
			</g>
			<g>
				<path style="fill:none;stroke:#704226;stroke-width:0.7889;stroke-miterlimit:10;" d="M308.108,363.323h-9.281
					c-1.529,0-2.768-1.239-2.768-2.768v-0.12h14.817v0.12C310.876,362.084,309.637,363.323,308.108,363.323z"/>
				
					<line style="fill:none;stroke:#704226;stroke-width:0.7889;stroke-miterlimit:10;" x1="324.819" y1="385.275" x2="201.924" y2="385.275"/>
			</g>
			<g>
				<path style="fill:none;stroke:#704226;stroke-width:0.7889;stroke-miterlimit:10;" d="M308.108,399.139h-9.281
					c-1.529,0-2.768-1.239-2.768-2.768v-0.12h14.817v0.12C310.876,397.9,309.637,399.139,308.108,399.139z"/>
			</g>
		</g>
		<circle style="fill:#FFABAB;" cx="465.148" cy="199.214" r="121.57"/>
		<g>
			<rect x="542.053" y="200.02" style="opacity:0.2;" width="90.999" height="40.061"/>
			<rect x="539.703" y="197.29" style="fill:#3593BF;" width="90.999" height="40.061"/>
			<polygon style="fill:#2D7EA3;" points="550.757,237.35 539.703,237.35 539.703,197.29 559.631,197.29 			"/>
			<g>
				<g>
					<path style="fill:#FFFFFF;" d="M568.75,225.317c-1.466,0-2.758-0.302-3.877-0.906c-1.118-0.604-1.989-1.524-2.613-2.762
						s-0.936-2.797-0.936-4.679c0-1.97,0.329-3.582,0.987-4.834s1.567-2.181,2.726-2.785s2.475-0.906,3.95-0.906
						c0.812,0,1.597,0.082,2.354,0.245c0.757,0.163,1.378,0.369,1.863,0.616l-0.742,2.064c-0.495-0.198-1.067-0.376-1.716-0.535
						s-1.255-0.238-1.819-0.238c-1.129,0-2.066,0.243-2.814,0.728c-0.747,0.485-1.307,1.198-1.678,2.139
						c-0.371,0.941-0.557,2.099-0.557,3.476c0,1.317,0.18,2.44,0.542,3.371c0.361,0.931,0.9,1.641,1.618,2.131
						s1.616,0.735,2.696,0.735c0.861,0,1.638-0.091,2.331-0.274s1.322-0.398,1.887-0.646v2.198c-0.545,0.277-1.151,0.49-1.819,0.639
						C570.465,225.243,569.671,225.317,568.75,225.317z"/>
					<path style="fill:#FFFFFF;" d="M588.85,220.564c0,1.04-0.26,1.914-0.78,2.622c-0.52,0.708-1.262,1.24-2.228,1.596
						c-0.965,0.356-2.116,0.535-3.453,0.535c-1.139,0-2.123-0.089-2.955-0.267s-1.56-0.431-2.184-0.757v-2.272
						c0.664,0.327,1.456,0.624,2.377,0.891c0.921,0.267,1.861,0.401,2.821,0.401c1.406,0,2.426-0.228,3.06-0.683
						c0.634-0.455,0.95-1.074,0.95-1.856c0-0.445-0.126-0.839-0.378-1.181c-0.253-0.342-0.676-0.673-1.271-0.995
						c-0.594-0.322-1.416-0.676-2.465-1.062c-1.04-0.396-1.938-0.79-2.695-1.181c-0.758-0.391-1.342-0.869-1.753-1.433
						s-0.616-1.297-0.616-2.198c0-1.376,0.557-2.433,1.671-3.17c1.113-0.738,2.576-1.106,4.389-1.106
						c0.979,0,1.898,0.096,2.755,0.29c0.856,0.193,1.656,0.453,2.398,0.78l-0.832,1.975c-0.673-0.287-1.391-0.53-2.153-0.728
						c-0.763-0.198-1.54-0.297-2.332-0.297c-1.139,0-2.012,0.188-2.621,0.564c-0.608,0.376-0.913,0.891-0.913,1.544
						c0,0.505,0.141,0.921,0.423,1.248s0.735,0.634,1.359,0.921s1.445,0.624,2.465,1.01c1.021,0.376,1.901,0.765,2.644,1.166
						c0.743,0.401,1.314,0.886,1.716,1.456S588.85,219.673,588.85,220.564z"/>
					<path style="fill:#FFFFFF;" d="M604.866,220.564c0,1.04-0.26,1.914-0.78,2.622c-0.52,0.708-1.262,1.24-2.228,1.596
						c-0.965,0.356-2.116,0.535-3.453,0.535c-1.139,0-2.123-0.089-2.955-0.267s-1.56-0.431-2.184-0.757v-2.272
						c0.664,0.327,1.456,0.624,2.377,0.891c0.921,0.267,1.861,0.401,2.821,0.401c1.406,0,2.426-0.228,3.06-0.683
						c0.634-0.455,0.95-1.074,0.95-1.856c0-0.445-0.126-0.839-0.378-1.181c-0.253-0.342-0.676-0.673-1.271-0.995
						c-0.594-0.322-1.416-0.676-2.465-1.062c-1.04-0.396-1.938-0.79-2.695-1.181c-0.758-0.391-1.342-0.869-1.753-1.433
						s-0.616-1.297-0.616-2.198c0-1.376,0.557-2.433,1.671-3.17c1.113-0.738,2.576-1.106,4.389-1.106
						c0.979,0,1.898,0.096,2.755,0.29c0.856,0.193,1.656,0.453,2.398,0.78l-0.832,1.975c-0.673-0.287-1.391-0.53-2.153-0.728
						c-0.763-0.198-1.54-0.297-2.332-0.297c-1.139,0-2.012,0.188-2.621,0.564c-0.608,0.376-0.913,0.891-0.913,1.544
						c0,0.505,0.141,0.921,0.423,1.248s0.735,0.634,1.359,0.921s1.445,0.624,2.465,1.01c1.021,0.376,1.901,0.765,2.644,1.166
						c0.743,0.401,1.314,0.886,1.716,1.456S604.866,219.673,604.866,220.564z"/>
				</g>
			</g>
		</g>
		<g>
			<polygon style="fill:#AD6E47;" points="481.023,419.902 476.109,419.902 474.999,292.95 482.132,292.95 			"/>
			<polygon style="fill:#874F2E;" points="489.448,377.352 467.684,377.352 471.533,367.895 485.599,367.895 			"/>
			<path style="fill:#704226;" d="M489.448,377.352h-21.764l4.192,7.759c0.543,1.005,1.594,1.632,2.736,1.632h7.908
				c1.143,0,2.193-0.626,2.736-1.632L489.448,377.352z"/>
			<g>
				<path style="fill:#AD6E47;" d="M514.587,419.902h-5.182l-26.331-52.007h3.746c2.562,0,4.886,1.499,5.943,3.832L514.587,419.902z
					"/>
				<path style="fill:#AD6E47;" d="M442.545,419.902h5.182l26.331-52.007h-3.746c-2.562,0-4.886,1.499-5.943,3.832L442.545,419.902z
					"/>
			</g>
			<path style="fill:#FFFFFF;" d="M424.959,296.222c0,0,37.718,0,66.37,0c28.653,0,43.863-19.456,49.877-44.217
				c6.014-24.761,8.844-39.618,12.027-54.829c3.184-15.211-2.476-37.37-21.578-37.37c-19.102,0-21.932,0-36.435,0
				s-22.321-4.529-29.024,19.073c-6.703,23.602-12.667,54.378-16.76,69.942c-4.093,15.564-35.133,13.354-46.187,23.435
				C394.65,280.099,394.316,296.222,424.959,296.222z"/>
			<path style="fill:#E3E3E3;" d="M523.873,220.257c-3.449-16.184-8.755-30.411-9.551-36.032
				c-0.707-4.994,3.605-17.276-0.076-24.419c-6.069,0-10.56,0-19.026,0c-14.503,0-22.321-4.529-29.024,19.073
				c-6.703,23.602-12.667,54.378-16.76,69.942c-4.093,15.564-35.133,13.354-46.187,23.435c-8.6,7.843-8.933,23.966,21.71,23.966
				c0,0,14.995,0,33.256,0c-4.2-6.051-8.232-14.945,4.374-14.945c19.102,0,28.918,0,28.918,0c15.653,0,22.816-4.245,28.653-14.061
				C525.996,257.399,527.322,236.44,523.873,220.257z"/>
		</g>
		<g>
			<path style="fill:#F86C6C;" d="M360.134,372.275c0,0-5.305,31.442-7.224,37.97c-0.84,2.856-10.416,8.736-13.441,9.912
				c-3.024,1.176-8.736,1.344-8.736,3.36c0,2.016,14.449,2.352,21.505,1.848c7.056-0.504,13.945,0.336,14.113-2.016
				c0.168-2.352-2.52-4.032-1.848-9.072c0.672-5.04,13.609-42.002,13.609-42.002H360.134z"/>
			<path style="fill:#F86C6C;" d="M431.805,372.275c0,0,5.819,30.244,5.291,37.97c-0.203,2.97-10.416,8.736-13.441,9.912
				c-3.024,1.176-8.736,1.344-8.736,3.36c0,2.016,14.449,2.352,21.505,1.848c7.056-0.504,13.945,0.336,14.113-2.016
				c0.168-2.352-1.443-4.004-1.848-9.072c-0.452-5.655,1.093-42.002,1.093-42.002H431.805z"/>
			<path style="fill:#A63B3B;" d="M433.703,382.747l15.405,7.146c0.319-9.297,0.673-17.617,0.673-17.617h-17.977
				C431.805,372.275,432.671,376.778,433.703,382.747z"/>
			<path style="fill:#A63B3B;" d="M358.424,382.172l14.435,5.365c2.814-8.295,5.252-15.262,5.252-15.262h-17.977
				C360.134,372.275,359.421,376.503,358.424,382.172z"/>
			<path style="fill:#38856D;" d="M397.236,376.52h-41.741c0,0,16.272-93.74,20.871-108.951
				c4.599-15.211,27.228-26.859,88.783-26.872l-7.809,28.994l-43.478,16.626c0,0-6.156,10.271-7.676,22.292
				c-1.521,12.021-1.167,17.327-5.058,23.34s-0.707,10.258-1.769,18.748C398.297,359.187,397.236,376.52,397.236,376.52z"/>
			<path style="fill:#286150;" d="M378.661,262.561c10.667-2.135,14.509,9.058,15.214,26.94
				c0.625,15.838,7.861,27.089,10.938,31.188c0.427-3.219,0.737-7.059,1.372-12.08c1.521-12.021,7.677-22.292,7.677-22.292
				l43.478-16.626l7.809-28.994C410.553,240.708,386.592,249.876,378.661,262.561z"/>
			
				<line style="fill:none;stroke:#286150;stroke-width:1.0612;stroke-linecap:round;stroke-linejoin:round;stroke-miterlimit:10;" x1="360.447" y1="367.5" x2="392.283" y2="367.5"/>
			
				<path style="fill:none;stroke:#286150;stroke-width:1.0612;stroke-linecap:round;stroke-linejoin:round;stroke-miterlimit:10;" d="
				M412.272,272.256c0,0-10.968,5.306-13.621,13.796c-2.653,8.49-3.449,31.04-6.367,38.469c-2.918,7.428-0.707,11.143-1.15,18.041
				c-0.442,6.898-3.626,24.938-3.626,24.938"/>
			<path style="fill:#B85050;" d="M415.807,167.992l-13.973,52.353l-58.013,13.973h65.586c6.27,0,11.855-3.962,13.926-9.88
				l15.113-43.18C438.446,181.257,426.596,165.162,415.807,167.992z"/>
			<path style="fill:#A63B3B;" d="M438.446,181.257c0,0-11.85-16.095-22.639-13.265l-4.335,16.24c1.083,1.132,2.58,2.085,4.688,2.56
				c6.63,1.492,8.863,15.804,12.986,21.034L438.446,181.257z"/>
			<path style="fill:#638296;" d="M461.339,132.703c0,0,17.698,3.719,27.249,8.229c9.551,4.51,12.469,15.387,14.99,32.367
				l-18.615,1.061c0,0,8.667,34.135,12.911,46.339c4.245,12.204,13.265,18.394,7.075,19.632c-6.19,1.238-56.951,0-65.264,0
				c-8.313,0,2.299-12.027,3.361-19.102c1.061-7.075-0.531-19.456-4.599-24.585c-4.068-5.129-9.374-3.361-8.49-19.279l-17.685-7.252
				c0,0,6.188-17.864,17.862-26.353C441.807,135.272,449.921,133.317,461.339,132.703z"/>
			<path style="fill:#313F4A;" d="M497.874,220.699c-4.245-12.204-12.911-46.339-12.911-46.339l4.907-0.28l-21.178,1.144
				l1.88-10.673c0,0-4.709,11.401-5.771,23.075c-0.949,10.442-14.544,17.878-21.531,25.818c0.18,2.858,0.107,5.581-0.224,7.787
				c-1.061,7.075-11.673,19.102-3.36,19.102c8.313,0,59.074,1.238,65.264,0C511.139,239.093,502.119,232.903,497.874,220.699z"/>
			<path style="fill:#F86C6C;" d="M499.459,173.533l-14.569,47.254c-2.48,8.044-9.914,13.531-18.331,13.531h-74.275
				c0,0,1.946-6.367,7.252-6.898c5.306-0.531,6.544,0.531,10.258,0.707c3.714,0.177,49.869-10.775,49.869-10.775l12.787-42.129
				L499.459,173.533z"/>
			<path style="fill:#313F4A;" d="M423.236,174.61l6.721,2.756c0.707-5.651,3.192-11.894,3.184-16.449
				c-0.006-3.189-2.299,0.924-5.306,6.741C426.354,170.522,424.618,172.915,423.236,174.61z"/>
			
				<path style="fill:none;stroke:#313F4A;stroke-width:1.0612;stroke-linecap:round;stroke-linejoin:round;stroke-miterlimit:10;" d="
				M472.449,175.223h-3.759c0,0,0.62-9.631,3.759-15.417"/>
			<path style="fill:#38856D;" d="M502.119,235.379c0,0,19.898,45.897-10.612,45.897c-30.51,0-44.04,0-44.04,0
				s1.513,7.135-0.167,13.086c-0.734,2.6-0.827,5.336-0.059,7.926c2.11,7.124,6.054,20.819,7.389,28.068
				c1.857,10.082,3.699,12.204,5.033,21.224c1.334,9.02,7.171,15.653,5.314,24.938h-45.897c0,0-9.551-62.346-12.469-88.346
				c-2.918-26,9.286-44.836,33.959-44.836c0,0,29.183-3.98,33.163-5.837L502.119,235.379z"/>
			
				<line style="fill:none;stroke:#286150;stroke-width:1.0612;stroke-linecap:round;stroke-linejoin:round;stroke-miterlimit:10;" x1="421.904" y1="367.5" x2="460.731" y2="367.5"/>
			
				<path style="fill:none;stroke:#286150;stroke-width:1.0612;stroke-linecap:round;stroke-linejoin:round;stroke-miterlimit:10;" d="
				M448.528,367.5c0,0,0-13-1.592-21.755c-1.592-8.755-3.184-18.806-4.245-25.056s-1.857-16.862-2.653-24.556
				c-0.796-7.694,0.703-13,1.28-22.02c10.393-2.122,39.311,0.531,48.597-3.184c9.286-3.714,16.465-6.102,18.579-14.061"/>
			<path style="fill:#A63B3B;" d="M470.859,180.462c4.736-0.465,16.31-0.968,25.303,3.763l3.297-10.692l-27.009,1.69
				L470.859,180.462z"/>
			<path style="fill:#53786B;" d="M349.205,414.23c-3.287,2.554-7.822,5.182-9.736,5.927c-3.024,1.176-8.736,1.344-8.736,3.36
				c0,2.016,14.449,2.352,21.505,1.848s13.945,0.336,14.113-2.016c0.138-1.929-1.642-3.409-1.918-6.657
				c-1.824,0.088-4.045,0.158-6.735,0.189C352.667,416.939,350.3,415.64,349.205,414.23z"/>
			<path style="fill:#53786B;" d="M433.391,414.23c-3.287,2.554-7.822,5.182-9.736,5.927c-3.024,1.176-8.736,1.344-8.736,3.36
				c0,2.016,14.449,2.352,21.505,1.848c7.056-0.504,13.945,0.336,14.112-2.016c0.138-1.929-1.642-3.409-1.918-6.657
				c-1.823,0.088-4.045,0.158-6.735,0.189C436.853,416.939,434.486,415.64,433.391,414.23z"/>
			<path style="fill:#F86C6C;" d="M435.857,122.03c1.196,2.718,1.329,4.642,3.12,6.432c1.099,1.099,2.948,1.923,4.212,2.396
				c0.835,0.312,1.764,0.25,2.559-0.154l1.496-0.762l2.194,5.947l-3.32,1.423c-3.039,1.302-5.389,3.818-6.466,6.944
				c-2.382,6.918-2.779,18.496,8.523,18.496c13.683,0,21.689-13.912,25.627-21.929c0.825-1.68-0.184-3.686-2.028-4.007
				c-3.204-0.558-7.627-1.878-9.051-4.972c-2.321-5.041-4.112-10.28-4.112-10.28s0.597-10.479-0.066-13.663
				c-0.663-3.184-4.842-11.076-13.132-8.888c-8.291,2.189-14.883,8.45-13.663,16.581C431.946,116.922,435.857,122.03,435.857,122.03
				z"/>
			
				<line style="fill:none;stroke:#A63B3B;stroke-width:0.7959;stroke-linecap:round;stroke-miterlimit:10;" x1="449.437" y1="135.889" x2="450.915" y2="140.003"/>
			<path style="fill:#A63B3B;" d="M448.261,132.703c3.006-0.004,4.246-6.363,5.201-7.911s0.106-2.476-0.601-1.326
				c-0.707,1.15-2.741,4.952-5.618,6.477L448.261,132.703z"/>
			<path style="fill:#7A2C2C;" d="M446.67,101.932c0,0,0.548,4.565,4.112,9.02c1.061,1.326,0.929,6.898,2.653,7.561
				c1.724,0.663-0.265-2.786,0.796-5.173c1.061-2.388,3.449-1.326,3.449,1.326s-1.326,5.439-1.326,5.439l2.255,1.459
				c0,0,1.061-5.837,2.52-12.602c1.459-6.765-4.775-13.928-15.785-12.602c0,0-14.061-6.632-19.765,7.031
				c-5.704,13.663,4.908,15.255,4.908,15.255l5.505,3.714l-1.749-4.276c-0.691-1.689-0.075-3.621,1.464-4.601
				C439.117,111.312,444.772,107.084,446.67,101.932z"/>
			
				<ellipse transform="matrix(0.1494 -0.9888 0.9888 0.1494 298.0233 527.873)" style="fill:#7A2C2C;" cx="455.821" cy="90.72" rx="9.014" ry="9.014"/>
		</g>
		
			<rect x="423.236" y="234.318" style="fill:none;stroke:#16367C;stroke-width:0.756;stroke-miterlimit:10;" width="106.474" height="10.082"/>
		<g>
			<rect x="293.237" y="231.079" style="fill:#E3E3E3;" width="153.208" height="3.239"/>
			<polygon style="fill:#FFFFFF;" points="388.096,234.318 289.902,234.318 274.489,164.11 372.683,164.11 			"/>
			<polygon style="fill:#E3E3E3;" points="388.096,234.318 384.494,234.318 369.081,164.11 372.683,164.11 			"/>
			<path style="fill:#F59D00;" d="M337.879,199.214c1.116,5.086-2.101,9.208-7.187,9.208c-5.086,0-10.113-4.123-11.23-9.208
				c-1.116-5.086,2.101-9.208,7.187-9.208C331.735,190.006,336.762,194.128,337.879,199.214z"/>
		</g>
		<g>
			<path style="fill:#FFFFFF;" d="M236.622,203.991c0,0-6.297-4.416-2.78-10.305c3.516-5.888,17.87-3.864,18.605-8.465
				c0.736-4.6-15.365-4.232-27.418-4.048c-12.053,0.184-16.837-0.989-16.837-4.025c0-3.565,4.568-3.294,4.417-7.724
				c-0.184-5.387-27.879-2.512-27.879-2.512s5.687-1.96,16.377-2.737c7.913-0.575,21.346-1.495,22.082,4.761
				c0.736,6.257,5.889,5.52,16.285,6.257c10.397,0.736,19.69,3.772,18.953,13.433c-0.736,9.661-19.748,3.159-21.99,8.005
				c-2.242,4.846,4.508,7.361,4.508,7.361H236.622z"/>
			<path style="fill:#F59D00;" d="M221.599,201.951l2.334,28.887c0.159,1.965,1.8,3.48,3.772,3.48h6.325h6.325
				c1.972,0,3.613-1.514,3.772-3.48l2.334-28.887H221.599z"/>
		</g>
		<g>
			<polygon style="opacity:0.2;" points="502.068,80.696 502.068,115.35 481.381,128.773 502.068,128.773 502.068,138.942 
				585.203,138.942 585.203,80.696 			"/>
			<polygon style="fill:#F86C6C;" points="499.459,77.644 499.459,112.298 478.772,125.721 499.459,125.721 499.459,135.889 
				582.594,135.889 582.594,77.644 			"/>
			<g>
				<g>
					<path style="fill:#FFFFFF;" d="M530.134,114.6l-16.803-7.44v-1.66l16.803-8.314v2.585l-13.658,6.445l13.658,5.816V114.6z"/>
					<path style="fill:#FFFFFF;" d="M546.508,93.309l-9.502,25.536h-2.864l9.519-25.536H546.508z"/>
					<path style="fill:#FFFFFF;" d="M550.479,112.033l13.677-5.781l-13.677-6.48v-2.585l16.803,8.314v1.66l-16.803,7.44V112.033z"/>
				</g>
			</g>
		</g>
		<g>
			<rect x="570.004" y="235.335" style="opacity:0.2;" width="76.228" height="40.061"/>
			<rect x="567.086" y="232.152" style="fill:#F86C6C;" width="76.228" height="40.061"/>
			<g>
				<g>
					<path style="fill:#FFFFFF;" d="M590.296,256.918h-1.394v-5.65h-6.299v5.65h-1.394v-11.99h1.394v5.109h6.299v-5.109h1.394
						V256.918z"/>
					<path style="fill:#FFFFFF;" d="M598.114,256.918h-1.402v-10.76h-3.772v-1.23h8.931v1.23h-3.756V256.918z"/>
					<path style="fill:#FFFFFF;" d="M609.796,256.918l-4.026-10.612h-0.065c0.021,0.224,0.041,0.498,0.058,0.82
						c0.016,0.323,0.029,0.674,0.041,1.054c0.011,0.38,0.016,0.767,0.016,1.161v7.577h-1.295v-11.99h2.066l3.797,9.972h0.058
						l3.854-9.972h2.05v11.99h-1.378v-7.676c0-0.355,0.006-0.712,0.017-1.07s0.024-0.697,0.041-1.017s0.033-0.597,0.049-0.833
						h-0.065l-4.075,10.596H609.796z"/>
					<path style="fill:#FFFFFF;" d="M620.47,256.918v-11.99h1.394v10.744h5.322v1.246H620.47z"/>
				</g>
			</g>
		</g>
		<path style="fill:#4D4D4D;" d="M615.4,336.75c0.331-2.029,0.51-4.109,0.51-6.232s-0.179-4.203-0.51-6.232h-10.689
			c-0.708-3.108-1.931-6.019-3.579-8.638l7.555-7.555c-2.441-3.394-5.419-6.373-8.814-8.814l-7.555,7.555
			c-2.619-1.648-5.53-2.871-8.638-3.579v-10.689c-2.029-0.331-4.109-0.51-6.232-0.51c-2.123,0-4.203,0.179-6.232,0.51v10.689
			c-3.108,0.708-6.019,1.931-8.638,3.579l-7.555-7.555c-3.394,2.441-6.373,5.419-8.814,8.814l7.555,7.555
			c-1.648,2.619-2.871,5.53-3.579,8.638h-10.689c-0.331,2.029-0.51,4.109-0.51,6.232s0.179,4.203,0.51,6.232h10.689
			c0.708,3.108,1.931,6.019,3.579,8.638l-7.555,7.555c2.441,3.394,5.419,6.373,8.814,8.814l7.555-7.555
			c2.619,1.648,5.529,2.871,8.638,3.579v10.689c2.029,0.331,4.109,0.51,6.232,0.51c2.123,0,4.203-0.179,6.232-0.51V357.78
			c3.108-0.708,6.019-1.931,8.638-3.579l7.555,7.555c3.394-2.441,6.373-5.419,8.814-8.814l-7.555-7.555
			c1.648-2.619,2.871-5.53,3.579-8.638H615.4z M577.448,344.283c-7.603,0-13.766-6.163-13.766-13.766
			c0-7.603,6.163-13.766,13.766-13.766s13.766,6.163,13.766,13.766C591.213,338.12,585.05,344.283,577.448,344.283z"/>
		<path style="fill:#7D7D7D;" d="M654.332,364.671c0.101-1.291,0.104-2.605-0.008-3.938s-0.334-2.628-0.648-3.884l-6.707,0.563
			c-0.608-1.913-1.529-3.675-2.7-5.232l4.343-5.138c-1.71-2.001-3.736-3.714-5.994-5.067l-4.343,5.138
			c-1.73-0.896-3.621-1.511-5.609-1.791l-0.563-6.707c-1.291-0.101-2.606-0.104-3.938,0.008c-1.332,0.112-2.628,0.334-3.884,0.648
			l0.563,6.707c-1.913,0.608-3.675,1.529-5.232,2.7l-5.138-4.343c-2.001,1.71-3.714,3.736-5.067,5.994l5.138,4.343
			c-0.896,1.73-1.511,3.621-1.791,5.609l-6.707,0.563c-0.101,1.291-0.104,2.605,0.008,3.938c0.112,1.332,0.334,2.628,0.648,3.884
			l6.707-0.563c0.608,1.913,1.529,3.675,2.7,5.232l-4.343,5.138c1.71,2.002,3.736,3.714,5.994,5.067l4.343-5.138
			c1.73,0.896,3.621,1.511,5.609,1.791l0.563,6.707c1.291,0.101,2.605,0.104,3.938-0.008c1.332-0.112,2.628-0.334,3.884-0.648
			l-0.563-6.707c1.913-0.608,3.675-1.529,5.232-2.7l5.138,4.343c2.001-1.71,3.714-3.736,5.067-5.994l-5.138-4.343
			c0.896-1.73,1.511-3.621,1.791-5.609L654.332,364.671z M630.914,371.395c-4.77,0.4-8.962-3.143-9.362-7.913
			c-0.4-4.771,3.143-8.962,7.913-9.362c4.771-0.4,8.962,3.143,9.362,7.913C639.227,366.803,635.684,370.995,630.914,371.395z"/>
		<g>
			<g style="opacity:0.2;">
				<path d="M394.845,50.527H276.526c-5.377,0-9.736,4.359-9.736,9.736v69.272c0,5.377,4.359,9.736,9.736,9.736h48.262
					c1.656,0,3.169,0.934,3.913,2.413l5.968,11.88c0.42,0.836,1.613,0.836,2.033,0l5.968-11.88c0.743-1.479,2.257-2.413,3.913-2.413
					h48.262c5.377,0,9.736-4.359,9.736-9.736V60.263C404.581,54.886,400.222,50.527,394.845,50.527z"/>
			</g>
			<g>
				<path style="fill:#313F4A;" d="M392.717,46.541H274.399c-5.377,0-9.736,4.359-9.736,9.736v69.272
					c0,5.377,4.359,9.736,9.736,9.736h48.262c1.655,0,3.169,0.934,3.913,2.413l5.968,11.88c0.42,0.836,1.613,0.836,2.033,0
					l5.968-11.88c0.743-1.479,2.257-2.413,3.913-2.413h48.262c5.377,0,9.736-4.359,9.736-9.736V56.277
					C402.453,50.9,398.094,46.541,392.717,46.541z"/>
				<path style="fill:#F59D00;" d="M315.346,64.406h-31.892c-1.044,0-1.89-0.846-1.89-1.89l0,0c0-1.044,0.846-1.89,1.89-1.89h31.892
					c1.044,0,1.89,0.846,1.89,1.89l0,0C317.236,63.56,316.389,64.406,315.346,64.406z"/>
				<path style="fill:#FFFFFF;" d="M328.832,73.007h-45.378c-1.044,0-1.89-0.846-1.89-1.89v0c0-1.044,0.846-1.89,1.89-1.89h45.378
					c1.044,0,1.89,0.846,1.89,1.89v0C330.722,72.161,329.876,73.007,328.832,73.007z"/>
				<path style="fill:#3593BF;" d="M382.037,64.406h-58.378c-1.044,0-1.89-0.846-1.89-1.89l0,0c0-1.044,0.846-1.89,1.89-1.89h58.378
					c1.044,0,1.89,0.846,1.89,1.89l0,0C383.927,63.56,383.081,64.406,382.037,64.406z"/>
				<path style="fill:#FFFFFF;" d="M382.037,73.007h-45.378c-1.044,0-1.89-0.846-1.89-1.89v0c0-1.044,0.846-1.89,1.89-1.89h45.378
					c1.044,0,1.89,0.846,1.89,1.89v0C383.927,72.161,383.081,73.007,382.037,73.007z"/>
				<path style="fill:#F86C6C;" d="M351.964,79.597h-69.516c-0.489,0-0.884-0.396-0.884-0.884l0,0c0-0.488,0.396-0.884,0.884-0.884
					h69.516c0.488,0,0.884,0.396,0.884,0.884l0,0C352.848,79.201,352.452,79.597,351.964,79.597z"/>
				<path style="fill:#F59D00;" d="M337.631,95.647h-54.177c-1.044,0-1.89-0.846-1.89-1.89l0,0c0-1.044,0.846-1.89,1.89-1.89h54.177
					c1.044,0,1.89,0.846,1.89,1.89l0,0C339.521,94.801,338.675,95.647,337.631,95.647z"/>
				<path style="fill:#F59D00;" d="M315.346,104.248h-31.892c-1.044,0-1.89-0.846-1.89-1.89l0,0c0-1.044,0.846-1.89,1.89-1.89
					h31.892c1.044,0,1.89,0.846,1.89,1.89l0,0C317.236,103.402,316.389,104.248,315.346,104.248z"/>
				<path style="fill:#FFFFFF;" d="M328.832,112.849h-45.378c-1.044,0-1.89-0.846-1.89-1.89l0,0c0-1.044,0.846-1.89,1.89-1.89
					h45.378c1.044,0,1.89,0.846,1.89,1.89l0,0C330.722,112.003,329.876,112.849,328.832,112.849z"/>
				<path style="fill:#3593BF;" d="M382.037,104.248h-58.378c-1.044,0-1.89-0.846-1.89-1.89l0,0c0-1.044,0.846-1.89,1.89-1.89
					h58.378c1.044,0,1.89,0.846,1.89,1.89l0,0C383.927,103.402,383.081,104.248,382.037,104.248z"/>
				<path style="fill:#FFFFFF;" d="M382.037,112.849h-45.378c-1.044,0-1.89-0.846-1.89-1.89l0,0c0-1.044,0.846-1.89,1.89-1.89
					h45.378c1.044,0,1.89,0.846,1.89,1.89l0,0C383.927,112.003,383.081,112.849,382.037,112.849z"/>
				<path style="fill:#F86C6C;" d="M351.964,119.439h-69.516c-0.489,0-0.884-0.396-0.884-0.884l0,0c0-0.488,0.396-0.884,0.884-0.884
					h69.516c0.488,0,0.884,0.396,0.884,0.884l0,0C352.848,119.043,352.452,119.439,351.964,119.439z"/>
			</g>
		</g>
		<g>
			<g>
				<rect x="204.449" y="234.318" style="fill:#657C8F;" width="325.261" height="10.082"/>
				<g>
					<rect x="436.527" y="244.399" style="fill:#657C8F;" width="7.717" height="192.609"/>
					<polygon style="fill:#657C8F;" points="537.427,437.009 529.71,437.009 504.635,244.399 512.352,244.399 					"/>
				</g>
				<g>
					<polygon style="fill:#313F4A;" points="444.245,259.844 444.245,244.399 436.527,244.399 436.527,258.816 					"/>
					<polygon style="fill:#313F4A;" points="512.352,244.399 504.635,244.399 507.747,268.303 515.601,269.349 					"/>
				</g>
				<g>
					<rect x="217.741" y="244.399" style="fill:#657C8F;" width="7.717" height="192.609"/>
					<polygon style="fill:#657C8F;" points="318.641,437.009 310.924,437.009 285.849,244.399 293.566,244.399 					"/>
				</g>
				<g>
					<polygon style="fill:#313F4A;" points="225.458,259.844 225.458,244.399 217.741,244.399 217.741,258.816 					"/>
					<polygon style="fill:#313F4A;" points="293.566,244.399 285.849,244.399 288.96,268.303 296.814,269.349 					"/>
				</g>
			</g>
			<g>
				
					<line style="fill:none;stroke:#657C8F;stroke-width:1.0612;stroke-miterlimit:10;" x1="209.225" y1="437.009" x2="234.163" y2="437.009"/>
				
					<line style="fill:none;stroke:#657C8F;stroke-width:1.0612;stroke-miterlimit:10;" x1="302.245" y1="437.009" x2="327.183" y2="437.009"/>
			</g>
			<g>
				
					<line style="fill:none;stroke:#657C8F;stroke-width:1.0612;stroke-miterlimit:10;" x1="427.266" y1="437.009" x2="452.205" y2="437.009"/>
				
					<line style="fill:none;stroke:#657C8F;stroke-width:1.0612;stroke-miterlimit:10;" x1="520.286" y1="437.009" x2="545.225" y2="437.009"/>
			</g>
		</g>
		<g>
			<g>
				<path style="fill:#999C48;" d="M116.776,344.186c0,0-0.866-21.611-13.46-33.108c-12.594-11.496-27.274-14.503-33.641-4.599
					c-6.367,9.905,3.184,19.632,12.558,28.476C91.607,343.799,113.47,344.043,116.776,344.186z"/>
				<path style="fill:#53786B;" d="M117.99,306.572c0,0-23.199-14.772-31.866-33.167c-8.667-18.394,4.068-32.013,11.32-34.047
					c7.252-2.034,22.816,0.203,27.591,20.486C129.811,280.127,117.99,306.572,117.99,306.572z"/>
				<path style="fill:#999C48;" d="M153.653,283.282c0,0-6.629-12.999-9.548-30.774c-2.918-17.775,6.898-42.979,30.244-39.795
					c23.347,3.184,16.62,32.165,5.571,45.101C172.291,266.748,153.653,283.282,153.653,283.282z"/>
				<path style="fill:none;stroke:#313F4A;stroke-width:1.0612;stroke-miterlimit:10;" d="M171.513,214.987
					c0,0-27.909,91.264-32.898,158.474"/>
				<path style="fill:#6D9C8B;" d="M129.839,327.507c0,0-2.173-14.338,4.372-29.725c6.544-15.388,19.279-16.802,25.469-13.796
					c6.19,3.007,4.952,17.156-1.769,27.238C151.19,321.306,138.823,325.48,129.839,327.507z"/>
				<path style="fill:none;stroke:#313F4A;stroke-width:1.0612;stroke-miterlimit:10;" d="M129.493,372.275
					c0,0-9.197-73.223-26.176-117.087"/>
				<path style="fill:none;stroke:#313F4A;stroke-width:1.0612;stroke-miterlimit:10;" d="M84.215,318.153
					c0,0,17.67,18.886,41.909,31.306"/>
				<path style="fill:none;stroke:#313F4A;stroke-width:1.0612;stroke-miterlimit:10;" d="M152.486,294.099
					c0,0-16.003,28.476-29.049,39.707"/>
				<path style="fill:#F86C6C;" d="M153.378,341.3c0,0,10.66-54.214,34.334-36.835C208.14,319.462,174.492,344.567,153.378,341.3z"
					/>
				<path style="fill:none;stroke:#313F4A;stroke-width:1.0612;stroke-miterlimit:10;" d="M180.107,313.271
					c0,0-14.68,24.496-39.056,34.876"/>
				<path style="fill:#313F4A;" d="M139.362,361.879h-26.972c0.281,22.867,4.19,45.735,5.955,54.96
					c0.473,2.47,2.636,4.252,5.15,4.252h15.867h15.867c2.515,0,4.678-1.782,5.15-4.252c1.765-9.225,5.674-32.092,5.955-54.96
					H139.362z"/>
				<path style="fill:#27323B;" d="M112.389,361.879c0.079,6.456,0.448,12.911,0.976,19.06c8.593-0.82,17.157-2.176,21.044-4.419
					c6.259-3.611,22.195-6.483,31.743-7.951c0.091-2.222,0.154-4.456,0.182-6.69h-26.972H112.389z"/>
			</g>
			
				<line style="fill:none;stroke:#313F4A;stroke-width:1.0612;stroke-miterlimit:10;" x1="114.6" y1="421.091" x2="180.107" y2="421.091"/>
		</g>
	</g>
</g>
<!-- <g id="DESIGNED_BY_FREEPIK">
	<g>
		<g id="XMLID_319_">
			<g id="XMLID_338_">
				<path id="XMLID_346_" style="fill:#A5B7C6;" d="M385.104,465.465c-0.432,0.443-0.803,0.931-1.108,1.453l-0.465-0.241
					c-0.067-0.298-0.349-0.503-0.659-0.466c-0.331,0.039-0.568,0.339-0.529,0.67c0.039,0.331,0.339,0.568,0.67,0.529
					c0.065-0.008,0.127-0.026,0.183-0.052l0.452,0.234c-0.251,0.554-0.433,1.139-0.539,1.744l0.747,0.132
					c0.23-1.306,0.85-2.507,1.792-3.473L385.104,465.465z"/>
				<path id="XMLID_345_" style="fill:#A5B7C6;" d="M390.592,463.163c-0.171,0-0.341,0.006-0.51,0.017l-0.074-0.626
					c0.188-0.149,0.296-0.389,0.266-0.645c-0.046-0.393-0.402-0.674-0.795-0.628c-0.393,0.046-0.674,0.402-0.628,0.795
					c0.03,0.254,0.189,0.461,0.405,0.564l0.073,0.624c-0.714,0.116-1.403,0.332-2.06,0.646l0.327,0.684
					c0.934-0.447,1.942-0.673,2.995-0.673c0.496,0,0.993,0.053,1.475,0.158l0.161-0.741
					C391.692,463.222,391.142,463.163,390.592,463.163z"/>
				<path id="XMLID_344_" style="fill:#A5B7C6;" d="M397.194,465.711c0.331-0.04,0.566-0.341,0.526-0.672
					c-0.04-0.331-0.341-0.566-0.672-0.526c-0.309,0.038-0.535,0.304-0.53,0.609l-0.416,0.363c-0.418-0.43-0.89-0.813-1.408-1.139
					l-0.404,0.641c1.134,0.715,2.021,1.726,2.563,2.925l0.691-0.313c-0.251-0.554-0.568-1.072-0.942-1.545l0.402-0.351
					C397.065,465.716,397.129,465.719,397.194,465.711z"/>
				<path id="XMLID_343_" style="fill:#A5B7C6;" d="M390.044,473.372c-0.386,0.023-0.775,0.035-1.157,0.035
					c-0.88,0-1.733-0.061-2.478-0.179c-0.39-0.062-0.846-0.155-1.27-0.292c1.046,1.861,3.069,3.125,5.388,3.125
					c2.855,0,5.262-1.916,5.95-4.504c-0.682,0.449-1.505,0.825-2.459,1.123C392.839,473.047,391.464,473.286,390.044,473.372z"/>
				<path id="XMLID_339_" style="fill:#A5B7C6;" d="M390.592,464.68c-3.352,0-6.08,2.666-6.08,5.943
					c0,0.426,0.046,0.849,0.137,1.261c0.673,0.483,2.706,0.89,5.348,0.731c2.879-0.173,5.297-0.957,6.672-2.159
					c-0.005-0.195-0.021-0.39-0.045-0.582C396.244,466.913,393.65,464.68,390.592,464.68z M388.432,471.194
					c-1.02,0-1.85-0.83-1.85-1.85c0-1.02,0.83-1.85,1.85-1.85c1.02,0,1.85,0.83,1.85,1.85
					C390.282,470.365,389.452,471.194,388.432,471.194z M393.17,470.286c-0.75,0-1.36-0.61-1.36-1.36s0.61-1.361,1.36-1.361
					c0.75,0,1.361,0.61,1.361,1.361S393.92,470.286,393.17,470.286z"/>
			</g>
			<path id="XMLID_336_" style="fill:#A5B7C6;" d="M406.595,466.547c-0.295-0.116-0.805-0.309-1.382-0.237
				c-0.551,0.069-0.844,0.341-0.844,1.007v0.866h2.228v1.717h-2.228v5.455h-1.932v-5.455h-1.34v-1.717h1.34v-0.888
				c0-1.68,0.896-2.783,2.568-2.783c0.643,0,1.157,0.122,1.59,0.308L406.595,466.547z"/>
			<path id="XMLID_334_" style="fill:#A5B7C6;" d="M411.298,469.879c-0.177-0.03-0.358-0.046-0.526-0.046
				c-0.896,0-1.51,0.548-1.51,1.614v3.908h-1.932v-7.172h1.873v0.785c0.451-0.673,1.14-0.977,2.021-0.977
				c0.414,0,0.848,0.128,1.094,0.337L411.298,469.879z"/>
			<path id="XMLID_331_" style="fill:#A5B7C6;" d="M418.965,471.757c0,0.222-0.015,0.489-0.037,0.651h-5.085
				c0.207,1.036,0.933,1.488,1.843,1.488c0.622,0,1.295-0.252,1.813-0.688l1.132,1.243c-0.814,0.748-1.85,1.088-3.057,1.088
				c-2.198,0-3.723-1.495-3.723-3.753c0-2.258,1.48-3.797,3.627-3.797C417.544,467.99,418.958,469.522,418.965,471.757z
				 M413.851,471.091h3.175c-0.177-0.918-0.733-1.436-1.562-1.436C414.554,469.655,414.021,470.203,413.851,471.091z"/>
			<path id="XMLID_328_" style="fill:#A5B7C6;" d="M426.618,471.757c0,0.222-0.015,0.489-0.037,0.651h-5.085
				c0.207,1.036,0.933,1.488,1.843,1.488c0.622,0,1.295-0.252,1.813-0.688l1.132,1.243c-0.814,0.748-1.85,1.088-3.057,1.088
				c-2.198,0-3.723-1.495-3.723-3.753c0-2.258,1.48-3.797,3.627-3.797C425.197,467.99,426.611,469.522,426.618,471.757z
				 M421.504,471.091h3.175c-0.178-0.918-0.733-1.436-1.562-1.436C422.207,469.655,421.674,470.203,421.504,471.091z"/>
			<path id="XMLID_325_" style="fill:#A5B7C6;" d="M434.964,471.764c0,2.154-1.495,3.775-3.471,3.775
				c-0.962,0-1.643-0.378-2.109-0.933v3.708h-1.924v-10.133h1.887v0.792c0.466-0.585,1.155-0.984,2.139-0.984
				C433.469,467.99,434.964,469.61,434.964,471.764z M429.287,471.764c0,1.132,0.747,1.976,1.843,1.976
				c1.14,0,1.85-0.881,1.85-1.976c0-1.095-0.71-1.976-1.85-1.976C430.035,469.788,429.287,470.632,429.287,471.764z"/>
			<path id="XMLID_322_" style="fill:#A5B7C6;" d="M438.068,465.836c0,0.696-0.54,1.229-1.236,1.229
				c-0.696,0-1.229-0.533-1.229-1.229c0-0.696,0.533-1.243,1.229-1.243C437.527,464.592,438.068,465.14,438.068,465.836z
				 M437.809,475.354h-1.932v-7.172h1.932V475.354z"/>
			<path id="XMLID_320_" style="fill:#A5B7C6;" d="M441.032,470.736l2.701-2.554h2.368l-3.479,3.375l3.501,3.797h-2.376
				l-2.716-2.901v2.901H439.1v-10.658h1.932V470.736z"/>
		</g>
		<g>
			<path style="fill:#A5B7C6;" d="M309.412,475.289v-1.055c-0.527,0.718-1.391,1.23-2.387,1.23c-1.846,0-3.149-1.406-3.149-3.706
				c0-2.256,1.289-3.721,3.149-3.721c0.952,0,1.816,0.469,2.387,1.245v-3.765h1.099v9.77H309.412z M309.412,473.37v-3.208
				c-0.395-0.615-1.245-1.143-2.124-1.143c-1.421,0-2.27,1.172-2.27,2.739c0,1.567,0.85,2.724,2.27,2.724
				C308.168,474.483,309.017,473.986,309.412,473.37z"/>
			<path style="fill:#A5B7C6;" d="M311.932,471.744c0-2.051,1.465-3.706,3.486-3.706c2.139,0,3.398,1.67,3.398,3.794v0.279h-5.727
				c0.088,1.333,1.026,2.446,2.549,2.446c0.806,0,1.626-0.322,2.182-0.894l0.527,0.718c-0.703,0.703-1.655,1.084-2.812,1.084
				C313.44,475.465,311.932,473.956,311.932,471.744z M315.404,468.947c-1.509,0-2.256,1.274-2.315,2.358h4.643
				C317.718,470.25,317.015,468.947,315.404,468.947z"/>
			<path style="fill:#A5B7C6;" d="M319.607,474.351l0.571-0.791c0.469,0.542,1.362,1.011,2.329,1.011c1.084,0,1.67-0.513,1.67-1.216
				c0-1.714-4.38-0.659-4.38-3.281c0-1.098,0.952-2.036,2.636-2.036c1.201,0,2.051,0.454,2.622,1.026l-0.513,0.762
				c-0.424-0.513-1.201-0.894-2.109-0.894c-0.967,0-1.567,0.483-1.567,1.113c0,1.552,4.38,0.527,4.38,3.281
				c0,1.187-0.952,2.138-2.783,2.138C321.306,475.465,320.325,475.113,319.607,474.351z"/>
			<path style="fill:#A5B7C6;" d="M326.477,466.471c0-0.41,0.337-0.747,0.732-0.747c0.41,0,0.747,0.337,0.747,0.747
				c0,0.41-0.337,0.732-0.747,0.732C326.814,467.203,326.477,466.881,326.477,466.471z M326.667,475.289v-7.075h1.099v7.075H326.667
				z"/>
			<path style="fill:#A5B7C6;" d="M329.582,477.105l0.556-0.82c0.586,0.703,1.289,0.967,2.3,0.967c1.172,0,2.27-0.571,2.27-2.124
				v-1.011c-0.513,0.718-1.377,1.26-2.373,1.26c-1.845,0-3.149-1.377-3.149-3.662c0-2.27,1.289-3.677,3.149-3.677
				c0.952,0,1.802,0.469,2.373,1.245v-1.069h1.099v6.87c0,2.344-1.641,3.076-3.369,3.076
				C331.237,478.16,330.417,477.926,329.582,477.105z M334.709,473.253v-3.091c-0.381-0.615-1.23-1.143-2.109-1.143
				c-1.421,0-2.27,1.128-2.27,2.695c0,1.553,0.849,2.695,2.27,2.695C333.478,474.41,334.328,473.868,334.709,473.253z"/>
			<path style="fill:#A5B7C6;" d="M342.413,475.289v-4.629c0-1.245-0.63-1.641-1.582-1.641c-0.865,0-1.685,0.527-2.095,1.099v5.17
				h-1.099v-7.075h1.099v1.025c0.498-0.586,1.465-1.201,2.519-1.201c1.48,0,2.256,0.747,2.256,2.285v4.966H342.413z"/>
			<path style="fill:#A5B7C6;" d="M344.932,471.744c0-2.051,1.465-3.706,3.486-3.706c2.138,0,3.398,1.67,3.398,3.794v0.279h-5.727
				c0.088,1.333,1.025,2.446,2.549,2.446c0.806,0,1.626-0.322,2.183-0.894l0.527,0.718c-0.703,0.703-1.655,1.084-2.812,1.084
				C346.441,475.465,344.932,473.956,344.932,471.744z M348.404,468.947c-1.509,0-2.256,1.274-2.314,2.358h4.643
				C350.718,470.25,350.015,468.947,348.404,468.947z"/>
			<path style="fill:#A5B7C6;" d="M358.35,475.289v-1.055c-0.527,0.718-1.392,1.23-2.388,1.23c-1.846,0-3.149-1.406-3.149-3.706
				c0-2.256,1.289-3.721,3.149-3.721c0.952,0,1.817,0.469,2.388,1.245v-3.765h1.098v9.77H358.35z M358.35,473.37v-3.208
				c-0.396-0.615-1.245-1.143-2.124-1.143c-1.421,0-2.27,1.172-2.27,2.739c0,1.567,0.849,2.724,2.27,2.724
				C357.105,474.483,357.954,473.986,358.35,473.37z"/>
			<path style="fill:#A5B7C6;" d="M364.692,475.289v-9.77h1.099v3.765c0.572-0.776,1.421-1.245,2.388-1.245
				c1.845,0,3.149,1.465,3.149,3.721c0,2.299-1.304,3.706-3.149,3.706c-0.996,0-1.86-0.513-2.388-1.23v1.055H364.692z
				 M367.9,474.483c1.436,0,2.286-1.157,2.286-2.724c0-1.568-0.85-2.739-2.286-2.739c-0.864,0-1.728,0.527-2.109,1.143v3.208
				C366.171,473.986,367.036,474.483,367.9,474.483z"/>
			<path style="fill:#A5B7C6;" d="M372.529,477.061c0.161,0.073,0.425,0.117,0.601,0.117c0.483,0,0.806-0.161,1.055-0.747
				l0.469-1.069l-2.959-7.148h1.187l2.358,5.8l2.344-5.8h1.201l-3.545,8.51c-0.425,1.025-1.143,1.421-2.08,1.435
				c-0.234,0-0.601-0.044-0.806-0.103L372.529,477.061z"/>
		</g>
	</g>
</g> -->
</svg>
